<?xml version="1.0" standalone="no"?>
<!DOCTYPE svg PUBLIC "-//W3C//DTD SVG 20010904//EN"
 "http://www.w3.org/TR/2001/REC-SVG-20010904/DTD/svg10.dtd">
<svg version="1.0" xmlns="http://www.w3.org/2000/svg"
 width="96.000000pt" height="96.000000pt" viewBox="0 0 96.000000 96.000000"
 preserveAspectRatio="xMidYMid meet">
<metadata>
Created by potrace 1.15, written by Peter Selinger 2001-2017
</metadata>
<g transform="translate(0.000000,96.000000) scale(0.100000,-0.100000)"
fill="#F0F0F0" stroke="none">
<path d="M352 854 c-59 -30 -107 -80 -135 -143 -31 -71 -21 -183 26 -285 41
-88 145 -249 201 -311 l36 -40 36 40 c36 40 164 226 164 238 0 4 -24 7 -52 7
l-53 0 -45 -70 c-25 -38 -47 -70 -50 -70 -11 0 -113 165 -151 242 -31 65 -39
93 -39 137 0 72 34 131 96 167 42 25 58 28 170 32 139 5 143 11 51 57 -73 36
-181 36 -255 -1z"/>
<path d="M480 580 l0 -140 40 0 40 0 0 140 0 140 -40 0 -40 0 0 -140z"/>
<path d="M600 580 l0 -140 40 0 40 0 0 40 c0 38 2 40 31 40 78 0 120 117 63
174 -24 23 -34 26 -100 26 l-74 0 0 -140z"/>
</g>
</svg>
