<?xml version="1.0" standalone="no"?>
<!DOCTYPE svg PUBLIC "-//W3C//DTD SVG 20010904//EN"
 "http://www.w3.org/TR/2001/REC-SVG-20010904/DTD/svg10.dtd">
<svg version="1.0" xmlns="http://www.w3.org/2000/svg"
 width="96.000000pt" height="96.000000pt" viewBox="0 0 96.000000 96.000000"
 preserveAspectRatio="xMidYMid meet">
<metadata>
Created by potrace 1.15, written by Peter Selinger 2001-2017
</metadata>
<g transform="translate(0.000000,96.000000) scale(0.100000,-0.100000)"
fill="#F0F0F0" stroke="none">
<path d="M20 700 c-19 -19 -20 -33 -20 -220 0 -187 1 -201 20 -220 19 -19 33
-20 460 -20 427 0 441 1 460 20 19 19 20 33 20 220 0 187 -1 201 -20 220 -19
19 -33 20 -460 20 -427 0 -441 -1 -460 -20z m860 -220 l0 -160 -400 0 -400 0
0 160 0 160 400 0 400 0 0 -160z"/>
<path d="M120 560 c0 -33 3 -40 20 -40 18 0 20 -7 20 -80 l0 -80 40 0 40 0 0
120 0 120 -60 0 -60 0 0 -40z"/>
</g>
</svg>
