<?xml version="1.0" standalone="no"?>
<!DOCTYPE svg PUBLIC "-//W3C//DTD SVG 20010904//EN"
 "http://www.w3.org/TR/2001/REC-SVG-20010904/DTD/svg10.dtd">
<svg version="1.0" xmlns="http://www.w3.org/2000/svg"
 width="96.000000pt" height="96.000000pt" viewBox="0 0 96.000000 96.000000"
 preserveAspectRatio="xMidYMid meet">
<metadata>
Created by potrace 1.15, written by Peter Selinger 2001-2017
</metadata>
<g transform="translate(0.000000,96.000000) scale(0.100000,-0.100000)"
fill="#F0F0F0" stroke="none">
<path d="M164 741 c-59 -27 -109 -75 -138 -133 -33 -66 -36 -180 -7 -244 47
-103 140 -164 251 -164 108 0 182 36 239 115 31 43 35 45 82 45 l49 0 0 -60 0
-60 120 0 120 0 0 60 0 60 40 0 40 0 0 120 0 120 -209 0 -208 0 -39 52 c-57
76 -123 108 -223 108 -52 0 -89 -6 -117 -19z m206 -91 c40 -21 83 -69 95 -107
6 -23 7 -23 211 -23 l204 0 0 -40 0 -40 -40 0 -40 0 0 -60 0 -60 -40 0 -40 0
0 60 0 60 -123 0 -123 0 -22 -45 c-31 -64 -97 -105 -169 -105 -115 0 -193 77
-193 190 0 111 77 189 188 190 34 0 67 -7 92 -20z"/>
<path d="M194 566 c-50 -50 -50 -122 0 -172 30 -30 40 -34 86 -34 46 0 56 4
86 34 30 30 34 40 34 86 0 46 -4 56 -34 86 -30 30 -40 34 -86 34 -46 0 -56 -4
-86 -34z"/>
</g>
</svg>
