<svg xmlns="http://www.w3.org/2000/svg" xmlns:svg="http://www.w3.org/2000/svg" id="Layer_1" width="817.2" height="597.9" x="0" y="0" version="1.1" viewBox="0 0 817.2 597.9" xml:space="preserve"><metadata id="metadata104"/><style id="style76" type="text/css">.st0{fill:#fff}.st1{fill:#501f00}.st2{fill:#5c767c}.st3{fill:#79abff}.st4{fill:#dbbd68}</style><g id="XMLID_2_" transform="translate(-231.39999,-101.10001)"><rect id="XMLID_10_" width="173.7" height="450" x="263.4" y="217"/><rect id="XMLID_3_" width="138.2" height="353.5" x="282.3" y="274.8" class="st0"/><g id="XMLID_21_"><g id="XMLID_59_"><path id="XMLID_60_" d="m 290.7,453.9 v -0.3 c 0,-35.1 27.5,-62.7 64.9,-62.7 21.2,0 36.2,6.5 48.9,17.6 l -19.6,23.6 c -8.6,-7.2 -17.2,-11.4 -29.1,-11.4 -17.4,0 -30.8,14.6 -30.8,33.1 v 0.3 c 0,19.5 13.6,33.4 32.7,33.4 8.1,0 14.3,-1.7 19.3,-5 v -14.6 h -23.8 v -24.5 h 55.4 v 54.2 c -12.7,10.5 -30.5,18.6 -52.3,18.6 -37.5,0.1 -65.6,-25.8 -65.6,-62.3 z" class="st1"/></g></g><rect id="XMLID_28_" width="173.7" height="450" x="456" y="133.1"/><rect id="XMLID_27_" width="138.2" height="353.5" x="474.9" y="190.9" class="st0"/><g id="XMLID_11_"><g id="XMLID_72_"><path id="XMLID_73_" d="m 529.7,311 h 30.9 l 49.3,116.6 h -34.4 l -8.4,-20.7 h -44.7 l -8.3,20.7 h -33.7 z m 28.1,70.9 -12.9,-32.9 -13.1,32.9 z" class="st2"/></g></g><rect id="XMLID_36_" width="173.7" height="450" x="842.9" y="217"/><rect id="XMLID_33_" width="138.2" height="353.5" x="861.8" y="274.8" class="st0"/><g id="XMLID_7_"><g id="XMLID_57_"><path id="XMLID_58_" d="m 880.5,495.9 18.6,-22.2 c 11.9,9.5 25.1,14.5 39.1,14.5 9,0 13.8,-3.1 13.8,-8.3 v -0.3 c 0,-5 -4,-7.8 -20.3,-11.5 C 906,462.2 886.2,455 886.2,430.2 v -0.3 c 0,-22.4 17.7,-38.6 46.7,-38.6 20.5,0 36.5,5.5 49.6,16 l -16.7,23.6 c -11,-7.7 -23.1,-11.9 -33.7,-11.9 -8.1,0 -12.1,3.4 -12.1,7.8 v 0.3 c 0,5.5 4.1,7.9 20.8,11.7 27.7,6 44.9,15 44.9,37.5 v 0.3 c 0,24.6 -19.5,39.3 -48.7,39.3 -21.4,0 -41.7,-6.7 -56.5,-20 z" class="st3"/></g></g><rect id="XMLID_35_" width="173.7" height="450" x="650.2" y="217"/><rect id="XMLID_34_" width="138.2" height="353.5" x="669.1" y="274.8" class="st0"/><g id="XMLID_1_"><g id="XMLID_76_"><path id="XMLID_77_" d="m 692.2,393.3 h 51.7 c 30.5,0 50.1,15.7 50.1,42.4 v 0.3 c 0,28.4 -21.9,43.4 -51.8,43.4 h -16.5 v 34.4 H 692.3 V 393.3 Z m 49.2,59.9 c 11.9,0 19.1,-6.2 19.1,-15.7 v -0.3 c 0,-10.3 -7.2,-15.8 -19.3,-15.8 h -15.7 v 31.9 h 15.9 z" class="st4"/></g></g></g></svg>