<svg xmlns="http://www.w3.org/2000/svg" id="Layer_1" x="0" y="0" version="1.1" viewBox="0 0 960 560" style="enable-background:new 0 0 960 560"><style type="text/css">.st0{fill:#fff}</style><rect id="XMLID_1_" width="960" height="564" style="fill:none"/><path id="XMLID_446_" d="M404,347.8h42.7c2.1,0,3.7,1,4.8,3c0.4,0.7,0.6,1.6,0.6,2.5v9h-47.9c-3,0-5.5,1.2-7.5,3.7 c-1.3,1.7-1.9,3.5-1.9,5.5v8.3c0,2.4,0.9,4.5,2.6,6.4c0.7,0.6,1.3,1.1,1.9,1.5c0.6,0.4,1.2,0.7,1.8,0.9c1.1,0.3,2,0.5,2.6,0.5H435 v-6.9h-23.7v-6.5c0-1.5,0.3-2.6,0.9-3.3c0.6-1.1,1.6-1.8,3-2.3c0.5-0.1,1-0.2,1.4-0.2H452v28.4c0,1.5-0.7,2.8-2,4 c-1,0.8-2.1,1.2-3.4,1.2h-42.8c-4.8,0-9.4-1.5-13.6-4.4c-0.8-0.6-1.7-1.4-2.8-2.4c-1.1-1.1-1.9-2-2.5-2.8c-3.1-4.3-4.7-9-4.7-14.4 v-7.7c0-6.6,2.4-12.3,7.1-17.2c1.5-1.4,2.7-2.3,3.6-2.8c1-0.7,2.1-1.3,3.3-1.8C397.5,348.5,400.7,347.8,404,347.8z" class="st0"/><path id="XMLID_443_" d="M492.4,309.9h11.7c2.4,0,4.3,1,5.9,3c0.4,0.6,1,1.5,1.6,2.7c0.1,0.2,0.2,0.3,0.3,0.5 c0.2,0.4,2.3,4,6.1,10.8c1.1,1.9,2.3,4.1,3.8,6.6c8.7,15.5,13.2,23.3,13.5,23.7l4.7,8.3h-12.3c-3.2,0-5.6-1.5-7.2-4.6 c-1.1-1.9-1.9-3.2-2.4-4.1c-0.4-0.8-0.7-1.2-0.7-1.2h-38.1c-0.1,0-0.1,0-0.2,0.1c-0.1,0.1-0.1,0.2-0.1,0.3l-3.6,6.3 c-1.6,2.2-3.8,3.3-6.5,3.3h-12.2c-0.1,0-0.1,0-0.1,0c0,0,0,0,0-0.1c5.9-10.4,11-19.4,15.4-27c3.5-6.1,6.2-11,8.4-14.8 c3.3-5.8,5-8.9,5.2-9.1c0.4-0.8,0.9-1.5,1.4-2.1C488.4,310.7,490.3,309.9,492.4,309.9z M498.3,321.7l-12.5,22h25 C502.6,329.4,498.4,322.1,498.3,321.7z" class="st0"/><path id="XMLID_440_" d="M550.2,347.8h40.8c7.2,0,13.2,1.6,18,4.7c0.8,0.5,1.7,1.2,2.7,2c4,3.7,5.9,8.4,5.9,14.1 c0,4.7-1.4,8.8-4.3,12.2c-0.7,0.8-1.4,1.4-1.9,1.8c-1.2,1-2.2,1.7-3.1,2.2c-4.8,2.8-10.6,4.2-17.4,4.2l-30.7,0.2h-0.8v9.1 c0,1.7-0.8,3.1-2.3,4.3c-0.9,0.6-2,0.9-3.1,0.9h-9V353c0-1.5,0.7-2.8,2-4C547.9,348.2,549,347.8,550.2,347.8z M559.4,362.2v12.6H592 c3.1,0,5.3-0.7,6.7-2c0.2-0.2,0.5-0.5,0.8-0.8c0.7-1,1.1-2.2,1.1-3.5c0-2.7-1.3-4.6-4-5.7c-1.2-0.4-2.7-0.6-4.5-0.6H559.4z" class="st0"/><path id="XMLID_438_" d="M639.1,347.8h50.7c1.4,0,2.7,0.5,3.9,1.4c1.6,1.4,2.4,3.1,2.4,5.2v7.8h-0.1 c-3.7,0.1-11.6,0.1-23.6,0.1c-9.5,0.1-16.8,0.1-22,0.1c-5.5,0.1-9.2,0.1-11.1,0.1c-0.4,0-0.8,0.1-1.1,0.4c-0.3,0.3-0.4,0.7-0.4,1.2 v3c0,0.7,0.3,1.2,0.9,1.5c0.1,0,0.1,0,0.2,0.1c0.1,0,0.1,0,0.2,0c12.1-0.1,19-0.1,20.7-0.1c0.4,0,1.2,0,2.3,0 c3.1-0.1,9.1-0.1,17.9-0.1h0.3c1.1,0,2.7,0.1,4.6,0.4c1.4,0.2,2.5,0.5,3.4,0.9c2.9,1.1,4.9,2.9,6.2,5.3c1.1,2.1,1.6,4.7,1.6,7.9v5.7 c0,5.6-1.7,9.6-5,11.9c-2.7,1.9-6.7,2.9-12,2.9h-49.3c-1.9,0-3.5-0.8-4.9-2.4c-1-1.2-1.5-2.5-1.5-4.1V389h56.2 c0.6,0,1.1-0.3,1.3-0.9c0.1-0.1,0.1-0.2,0.1-0.2c0-0.1,0-0.1,0-0.2v-4.2c0-0.6-0.3-1-0.9-1.2c-0.2-0.1-0.3-0.1-0.5-0.1h-40.4 c-6.4,0-10.8-1.6-13.2-4.7c-0.5-0.6-0.8-1.1-1-1.6c-0.3-0.5-0.5-1.1-0.8-1.9c-0.2-0.7-0.4-1.5-0.6-2.6c-0.2-1.1-0.2-2.7-0.2-4.8 v-0.3c0-5.1,0.4-8.7,1.3-10.6c0.5-1.3,1.2-2.5,2.3-3.7c0.6-0.7,1.1-1.1,1.6-1.4c1.5-1.1,3.3-1.8,5.2-2.2 C635.4,348,637.2,347.8,639.1,347.8z" class="st0"/><path id="XMLID_435_" d="M497.3,253.9c-0.2,3.3,0.4,6.6-4.1,7.6c-4.2,0.9-4.7,4.1-3.5,7.6c1.3,3.5,3.1,6.9,4.4,10.4 c0.8,2.1,1.3,4.2,2.1,7.1c1.9,0,3.7,0,5.6-0.1c-1.4-2.1-1.3-4.9,0.5-7.7c6.6-9.9,5.8-14.8-3.1-19.4c-0.2-5.1-1.5-10.3,4.2-14.3 c3.2-2.2,2.5-6.5-0.1-9.5c-2.1-2.5-4.4-4.8-7-6.8c-26.5-20.7-53.1-41.3-79.7-61.9c-2.5-1.9-5.2-3.6-9.3-6.5 c4,10.8-0.1,17.2-7.1,22.5c-2,1.9-4.1,3.8-6.1,5.6c0.9,1.6,1.3,3.7,2.6,4.7c8.7,6.9,16.8,14.9,26.4,20c22.7,12.1,46.1,22.9,69.4,34 C495.8,248.9,497.5,250.4,497.3,253.9z M415.6,175.8c6.9,0.9,67.6,47.8,72,56.1C460.5,217.1,433.8,201.9,415.6,175.8z" class="st0"/><path id="XMLID_432_" d="M348.2,358.3c-18,0-35,0-52.6,0c-2.1-12.2-4.3-24.2-6.3-36.1c-2.7-15.5-5.4-31-7.9-46.5 c-0.6-3.7-1-7.6-0.7-11.3c0.8-9.5,8.2-16.2,18.5-17.4c9.3-1.1,16.3,3,19.4,12.4c3.3,10,5.5,20.4,8.6,30.5 c6.2,20.2,12.6,40.3,18.9,60.5C346.7,352.6,347.2,354.9,348.2,358.3z M294.7,260.8c-1,0.6-2.6,1-3.1,1.9c-2.2,4.5-0.6,9.7,3.7,12.7 c4.1,2.9,9.6,2.5,13.3-1.1c3.6-3.5,4.3-9,1.7-13.3c-2.7-4.4-7.9-6.4-12.5-4.4c-1.1,0.5-1.7,2.3-2.5,3.5 C295.1,260.3,294.9,260.5,294.7,260.8z" class="st0"/><path id="XMLID_431_" d="M264.8,399.1c0-6.6-0.7-12.9,0.3-19c0.5-3.4,3.9-6.2,5.8-9.4c4.9-8.4,12-10.7,21.7-10.3 c22,0.7,44,0.4,66,0.1c4.5,0,7.2,1.9,10.4,4.8c10.4,9.2,12,20.5,9.6,33.8C341.3,399.1,303.8,399.1,264.8,399.1z" class="st0"/><path id="XMLID_428_" d="M400.3,183c-2,1.9-4.1,3.8-6.1,5.6c-2.3,1.8-5,3.3-6.8,5.6c-10.7,13.4-21.2,26.8-31.6,40.4 c-9.4,12.2-18.6,24.6-28.8,38.2c-4.4-9.4-8.1-17.5-12.3-26.5c20.7-21,42.3-42.7,63.8-64.6c-0.7-0.8-1.4-1.6-2.1-2.5 c-2.1,1.7-4.3,3.2-6.2,5c-20.2,18.6-40.4,37.1-60.5,55.8c-3.4,3.2-6.7,5.2-13.2,2c2.1-1.2,4.5-2.2,6.2-3.8 c27.4-25.2,54.6-50.6,82.1-75.7c2.8-2.6,6.7-4.9,10.4-5.5c4.5-0.7,8.9,2.4,10.1,6.7c1,3.5,0.2,7.8-0.8,11.5 C403.9,178.1,401.7,180.5,400.3,183z M386.8,168.4c-0.2,4.3,3.8,8.6,7.9,8.8c4.2,0.2,8.5-3.9,8.6-8.1c0.1-4.3-3.7-8.6-7.9-8.8 C391.2,160.1,386.9,164.1,386.8,168.4z" class="st0"/><path id="XMLID_421_" d="M376.1,219.2c3.2,5.1,6.2,9.7,9.8,15.4c-7.3,4.4-13.8,8.6-20.6,12.5 c-6.8,3.9-13.8,7.4-21.3,10.7C354.6,245.2,357.8,226.8,376.1,219.2z" class="st0"/><path id="XMLID_420_" d="M409.2,209.7c-8.5,5.1-17,10.3-25.5,15.4c-0.6-0.3-1.2-0.6-1.8-0.9c0.5-1.7,0.4-4.2,1.5-4.9 c6.8-4.4,13.8-8.5,20.9-12.4c1.2-0.7,3.4,0.3,5.1,0.6C409.3,208.1,409.3,208.9,409.2,209.7z" class="st0"/><path id="XMLID_417_" d="M414.2,212.9c-9.3,5.5-18.7,11.1-28,16.6c-0.4-0.6-0.8-1.3-1.2-1.9 c9.3-5.6,18.6-11.2,27.9-16.8C413.4,211.4,413.8,212.1,414.2,212.9z" class="st0"/><path id="XMLID_21_" d="M294.7,260.8c-0.5,1.8-1.5,3.6-1.6,5.4c-0.3,5,3.7,9,8.4,8.9c4.3-0.1,8.3-4.2,8.2-8.5 c0-4.6-4.4-8.7-9.1-8.2c-1.8,0.2-3.6,1.2-5.3,1.8c0.8-1.2,1.4-3,2.5-3.5c4.6-2,9.8,0,12.5,4.4c2.6,4.3,1.9,9.8-1.7,13.3 c-3.7,3.5-9.2,3.9-13.3,1.1c-4.3-3-5.9-8.2-3.7-12.7C292.1,261.7,293.7,261.4,294.7,260.8z" class="st0"/><path id="XMLID_14_" d="M386.8,168.4c0.2-4.3,4.4-8.3,8.6-8.1c4.2,0.2,8.1,4.5,7.9,8.8c-0.1,4.2-4.4,8.2-8.6,8.1 C390.5,177.1,386.6,172.7,386.8,168.4z M401.6,167.3c-1.7-1.3-3.7-3.7-6.1-4.2c-3.9-0.9-6.2,2.1-6.3,5.7c-0.2,3.3,1.9,5.6,5.5,5.8 C398.6,174.7,400.4,172.3,401.6,167.3z" class="st0"/><path id="XMLID_12_" d="M401.6,167.3c-1.2,4.9-3,7.4-7,7.2c-3.6-0.1-5.6-2.5-5.5-5.8c0.2-3.6,2.4-6.5,6.3-5.7 C397.9,163.7,399.8,166.1,401.6,167.3z" class="st0"/><path id="XMLID_9_" d="M513.1,296.7c-1.9-3.5-5-5.9-8.9-7.1c-0.8-0.3-1.6-0.5-2.7-0.9c0-0.5,0-5.6,0-6.1h-6.8 c0,2.3-0.7,9.3-0.6,11.6c0,1.8-0.4,4,2,4.7c2.3,0.7,4.4,0.4,5.8-1.9c4,1.1,6.2,4.4,5.8,8.6c-0.4,3.9-3.4,6.9-7.3,7.3 c0.2,2.5,0.4,5.3-0.3,7.6c5.1,0,9.3-2.4,12.5-6.9C516.2,308.3,516.2,302.4,513.1,296.7z M512.5,307.7c-0.3-2.8-0.6-5.8-1-8.8 C513.1,301.7,513.3,304.8,512.5,307.7z" class="st0"/><path id="XMLID_2_" d="M511.5,298.8c0.3,3,0.7,6,1,8.8C513.3,304.8,513.1,301.7,511.5,298.8z" class="st0"/></svg>