<?xml version="1.0" encoding="utf-8"?>
<!-- Generator: Adobe Illustrator 19.0.0, SVG Export Plug-In . SVG Version: 6.00 Build 0)  -->
<svg version="1.1" id="Layer_1" xmlns="http://www.w3.org/2000/svg" xmlns:xlink="http://www.w3.org/1999/xlink" x="0px" y="0px"
	 viewBox="0 0 1280 800" style="enable-background:new 0 0 1280 800;" xml:space="preserve">
<style type="text/css">
	.st0{fill:#FFFFFF;}
	.st1{fill:#501F00;}
	.st2{fill:#5C767C;}
	.st3{fill:#79ABFF;}
	.st4{fill:#DBBD68;}
</style>
<g id="XMLID_2_">
	<rect id="XMLID_10_" x="263.4" y="217" width="173.7" height="450"/>
	<rect id="XMLID_3_" x="282.3" y="274.8" class="st0" width="138.2" height="353.5"/>
	<g id="XMLID_21_">
		<g id="XMLID_59_">
			<path id="XMLID_60_" class="st1" d="M290.7,453.9v-0.3c0-35.1,27.5-62.7,64.9-62.7c21.2,0,36.2,6.5,48.9,17.6l-19.6,23.6
				c-8.6-7.2-17.2-11.4-29.1-11.4c-17.4,0-30.8,14.6-30.8,33.1v0.3c0,19.5,13.6,33.4,32.7,33.4c8.1,0,14.3-1.7,19.3-5v-14.6h-23.8
				v-24.5h55.4v54.2c-12.7,10.5-30.5,18.6-52.3,18.6C318.8,516.3,290.7,490.4,290.7,453.9z"/>
		</g>
	</g>
	<rect id="XMLID_28_" x="456" y="133.1" width="173.7" height="450"/>
	<rect id="XMLID_27_" x="474.9" y="190.9" class="st0" width="138.2" height="353.5"/>
	<g id="XMLID_11_">
		<g id="XMLID_72_">
			<path id="XMLID_73_" class="st2" d="M529.7,311h30.9l49.3,116.6h-34.4l-8.4-20.7h-44.7l-8.3,20.7h-33.7L529.7,311z M557.8,381.9
				L544.9,349l-13.1,32.9H557.8z"/>
		</g>
	</g>
	<rect id="XMLID_36_" x="842.9" y="217" width="173.7" height="450"/>
	<rect id="XMLID_33_" x="861.8" y="274.8" class="st0" width="138.2" height="353.5"/>
	<g id="XMLID_7_">
		<g id="XMLID_57_">
			<path id="XMLID_58_" class="st3" d="M880.5,495.9l18.6-22.2c11.9,9.5,25.1,14.5,39.1,14.5c9,0,13.8-3.1,13.8-8.3v-0.3
				c0-5-4-7.8-20.3-11.5c-25.7-5.9-45.5-13.1-45.5-37.9v-0.3c0-22.4,17.7-38.6,46.7-38.6c20.5,0,36.5,5.5,49.6,16l-16.7,23.6
				c-11-7.7-23.1-11.9-33.7-11.9c-8.1,0-12.1,3.4-12.1,7.8v0.3c0,5.5,4.1,7.9,20.8,11.7c27.7,6,44.9,15,44.9,37.5v0.3
				c0,24.6-19.5,39.3-48.7,39.3C915.6,515.9,895.3,509.2,880.5,495.9z"/>
		</g>
	</g>
	<rect id="XMLID_35_" x="650.2" y="217" width="173.7" height="450"/>
	<rect id="XMLID_34_" x="669.1" y="274.8" class="st0" width="138.2" height="353.5"/>
	<g id="XMLID_1_">
		<g id="XMLID_76_">
			<path id="XMLID_77_" class="st4" d="M692.2,393.3h51.7c30.5,0,50.1,15.7,50.1,42.4v0.3c0,28.4-21.9,43.4-51.8,43.4h-16.5v34.4
				h-33.4V393.3z M741.4,453.2c11.9,0,19.1-6.2,19.1-15.7v-0.3c0-10.3-7.2-15.8-19.3-15.8h-15.7v31.9H741.4z"/>
		</g>
	</g>
</g>
</svg>
