<?xml version="1.0" encoding="utf-8"?>
<svg version="1.1" id="Layer_1" x="0px" y="0px" viewBox="0 0 720 423" style="enable-background:new 0 0 960 560;" xmlns="http://www.w3.org/2000/svg" xmlns:bx="https://boxy-svg.com">
  <style type="text/css">
	.st0{fill:#FFFFFF;}
</style>
  <rect id="XMLID_1_" width="720" height="423" style="fill: none;"/>
  <g transform="matrix(1, 0, 0, 1, -66.561798, -39.901154)" bx:origin="0.53631 0.5">
    <path id="XMLID_446_" class="st0" d="M 404 347.8 L 446.7 347.8 C 448.8 347.8 450.4 348.8 451.5 350.8 C 451.9 351.5 452.1 352.4 452.1 353.3 L 452.1 362.3 L 404.2 362.3 C 401.2 362.3 398.7 363.5 396.7 366 C 395.4 367.7 394.8 369.5 394.8 371.5 L 394.8 379.8 C 394.8 382.2 395.7 384.3 397.4 386.2 C 398.1 386.8 398.7 387.3 399.3 387.7 C 399.9 388.1 400.5 388.4 401.1 388.6 C 402.2 388.9 403.1 389.1 403.7 389.1 L 435 389.1 L 435 382.2 L 411.3 382.2 L 411.3 375.7 C 411.3 374.2 411.6 373.1 412.2 372.4 C 412.8 371.3 413.8 370.6 415.2 370.1 C 415.7 370 416.2 369.9 416.6 369.9 L 452 369.9 L 452 398.3 C 452 399.8 451.3 401.1 450 402.3 C 449 403.1 447.9 403.5 446.6 403.5 L 403.8 403.5 C 399 403.5 394.4 402 390.2 399.1 C 389.4 398.5 388.5 397.7 387.4 396.7 C 386.3 395.6 385.5 394.7 384.9 393.9 C 381.8 389.6 380.2 384.9 380.2 379.5 L 380.2 371.8 C 380.2 365.2 382.6 359.5 387.3 354.6 C 388.8 353.2 390 352.3 390.9 351.8 C 391.9 351.1 393 350.5 394.2 350 C 397.5 348.5 400.7 347.8 404 347.8 Z"/>
    <path id="XMLID_443_" class="st0" d="M 492.4 309.9 L 504.1 309.9 C 506.5 309.9 508.4 310.9 510 312.9 C 510.4 313.5 511 314.4 511.6 315.6 C 511.7 315.8 511.8 315.9 511.9 316.1 C 512.1 316.5 514.2 320.1 518 326.9 C 519.1 328.8 520.3 331 521.8 333.5 C 530.5 349 535 356.8 535.3 357.2 L 540 365.5 L 527.7 365.5 C 524.5 365.5 522.1 364 520.5 360.9 C 519.4 359 518.6 357.7 518.1 356.8 C 517.7 356 517.4 355.6 517.4 355.6 L 479.3 355.6 C 479.2 355.6 479.2 355.6 479.1 355.7 C 479 355.8 479 355.9 479 356 L 475.4 362.3 C 473.8 364.5 471.6 365.6 468.9 365.6 L 456.7 365.6 C 456.6 365.6 456.6 365.6 456.6 365.6 C 456.6 365.6 456.6 365.6 456.6 365.5 C 462.5 355.1 467.6 346.1 472 338.5 C 475.5 332.4 478.2 327.5 480.4 323.7 C 483.7 317.9 485.4 314.8 485.6 314.6 C 486 313.8 486.5 313.1 487 312.5 C 488.4 310.7 490.3 309.9 492.4 309.9 Z M 498.3 321.7 L 485.8 343.7 L 510.8 343.7 C 502.6 329.4 498.4 322.1 498.3 321.7 Z"/>
    <path id="XMLID_440_" class="st0" d="M 550.2 347.8 L 591 347.8 C 598.2 347.8 604.2 349.4 609 352.5 C 609.8 353 610.7 353.7 611.7 354.5 C 615.7 358.2 617.6 362.9 617.6 368.6 C 617.6 373.3 616.2 377.4 613.3 380.8 C 612.6 381.6 611.9 382.2 611.4 382.6 C 610.2 383.6 609.2 384.3 608.3 384.8 C 603.5 387.6 597.7 389 590.9 389 L 560.2 389.2 L 559.4 389.2 L 559.4 398.3 C 559.4 400 558.6 401.4 557.1 402.6 C 556.2 403.2 555.1 403.5 554 403.5 L 545 403.5 L 545 353 C 545 351.5 545.7 350.2 547 349 C 547.9 348.2 549 347.8 550.2 347.8 Z M 559.4 362.2 L 559.4 374.8 L 592 374.8 C 595.1 374.8 597.3 374.1 598.7 372.8 C 598.9 372.6 599.2 372.3 599.5 372 C 600.2 371 600.6 369.8 600.6 368.5 C 600.6 365.8 599.3 363.9 596.6 362.8 C 595.4 362.4 593.9 362.2 592.1 362.2 L 559.4 362.2 Z"/>
    <path id="XMLID_438_" class="st0" d="M 639.1 347.8 L 689.8 347.8 C 691.2 347.8 692.5 348.3 693.7 349.2 C 695.3 350.6 696.1 352.3 696.1 354.4 L 696.1 362.2 L 696 362.2 C 692.3 362.3 684.4 362.3 672.4 362.3 C 662.9 362.4 655.6 362.4 650.4 362.4 C 644.9 362.5 641.2 362.5 639.3 362.5 C 638.9 362.5 638.5 362.6 638.2 362.9 C 637.9 363.2 637.8 363.6 637.8 364.1 L 637.8 367.1 C 637.8 367.8 638.1 368.3 638.7 368.6 C 638.8 368.6 638.8 368.6 638.9 368.7 C 639 368.7 639 368.7 639.1 368.7 C 651.2 368.6 658.1 368.6 659.8 368.6 C 660.2 368.6 661 368.6 662.1 368.6 C 665.2 368.5 671.2 368.5 680 368.5 L 680.3 368.5 C 681.4 368.5 683 368.6 684.9 368.9 C 686.3 369.1 687.4 369.4 688.3 369.8 C 691.2 370.9 693.2 372.7 694.5 375.1 C 695.6 377.2 696.1 379.8 696.1 383 L 696.1 388.7 C 696.1 394.3 694.4 398.3 691.1 400.6 C 688.4 402.5 684.4 403.5 679.1 403.5 L 629.8 403.5 C 627.9 403.5 626.3 402.7 624.9 401.1 C 623.9 399.9 623.4 398.6 623.4 397 L 623.4 389 L 679.6 389 C 680.2 389 680.7 388.7 680.9 388.1 C 681 388 681 387.9 681 387.9 C 681 387.8 681 387.8 681 387.7 L 681 383.5 C 681 382.9 680.7 382.5 680.1 382.3 C 679.9 382.2 679.8 382.2 679.6 382.2 L 639.2 382.2 C 632.8 382.2 628.4 380.6 626 377.5 C 625.5 376.9 625.2 376.4 625 375.9 C 624.7 375.4 624.5 374.8 624.2 374 C 624 373.3 623.8 372.5 623.6 371.4 C 623.4 370.3 623.4 368.7 623.4 366.6 L 623.4 366.3 C 623.4 361.2 623.8 357.6 624.7 355.7 C 625.2 354.4 625.9 353.2 627 352 C 627.6 351.3 628.1 350.9 628.6 350.6 C 630.1 349.5 631.9 348.8 633.8 348.4 C 635.4 348 637.2 347.8 639.1 347.8 Z"/>
    <path id="XMLID_435_" class="st0" d="M 497.3 253.9 C 497.1 257.2 497.7 260.5 493.2 261.5 C 489 262.4 488.5 265.6 489.7 269.1 C 491 272.6 492.8 276 494.1 279.5 C 494.9 281.6 495.4 283.7 496.2 286.6 C 498.1 286.6 499.9 286.6 501.8 286.5 C 500.4 284.4 500.5 281.6 502.3 278.8 C 508.9 268.9 508.1 264 499.2 259.4 C 499 254.3 497.7 249.1 503.4 245.1 C 506.6 242.9 505.9 238.6 503.3 235.6 C 501.2 233.1 498.9 230.8 496.3 228.8 C 469.8 208.1 443.2 187.5 416.6 166.9 C 414.1 165 411.4 163.3 407.3 160.4 C 411.3 171.2 407.2 177.6 400.2 182.9 C 398.2 184.8 396.1 186.7 394.1 188.5 C 395 190.1 395.4 192.2 396.7 193.2 C 405.4 200.1 413.5 208.1 423.1 213.2 C 445.8 225.3 469.2 236.1 492.5 247.2 C 495.8 248.9 497.5 250.4 497.3 253.9 Z M 415.6 175.8 C 422.5 176.7 483.2 223.6 487.6 231.9 C 460.5 217.1 433.8 201.9 415.6 175.8 Z"/>
    <path id="XMLID_432_" class="st0" d="M 348.2 358.3 C 330.2 358.3 313.2 358.3 295.6 358.3 C 293.5 346.1 291.3 334.1 289.3 322.2 C 286.6 306.7 283.9 291.2 281.4 275.7 C 280.8 272 280.4 268.1 280.7 264.4 C 281.5 254.9 288.9 248.2 299.2 247 C 308.5 245.9 315.5 250 318.6 259.4 C 321.9 269.4 324.1 279.8 327.2 289.9 C 333.4 310.1 339.8 330.2 346.1 350.4 C 346.7 352.6 347.2 354.9 348.2 358.3 Z M 294.7 260.8 C 293.7 261.4 292.1 261.8 291.6 262.7 C 289.4 267.2 291 272.4 295.3 275.4 C 299.4 278.3 304.9 277.9 308.6 274.3 C 312.2 270.8 312.9 265.3 310.3 261 C 307.6 256.6 302.4 254.6 297.8 256.6 C 296.7 257.1 296.1 258.9 295.3 260.1 C 295.1 260.3 294.9 260.5 294.7 260.8 Z"/>
    <path id="XMLID_431_" class="st0" d="M 264.8 399.1 C 264.8 392.5 264.1 386.2 265.1 380.1 C 265.6 376.7 269 373.9 270.9 370.7 C 275.8 362.3 282.9 360 292.6 360.4 C 314.6 361.1 336.6 360.8 358.6 360.5 C 363.1 360.5 365.8 362.4 369 365.3 C 379.4 374.5 381 385.8 378.6 399.1 C 341.3 399.1 303.8 399.1 264.8 399.1 Z"/>
    <path id="XMLID_428_" class="st0" d="M 400.3 183 C 398.3 184.9 396.2 186.8 394.2 188.6 C 391.9 190.4 389.2 191.9 387.4 194.2 C 376.7 207.6 366.2 221 355.8 234.6 C 346.4 246.8 337.2 259.2 327 272.8 C 322.6 263.4 318.9 255.3 314.7 246.3 C 335.4 225.3 357 203.6 378.5 181.7 C 377.8 180.9 377.1 180.1 376.4 179.2 C 374.3 180.9 372.1 182.4 370.2 184.2 C 350 202.8 329.8 221.3 309.7 240 C 306.3 243.2 303 245.2 296.5 242 C 298.6 240.8 301 239.8 302.7 238.2 C 330.1 213 357.3 187.6 384.8 162.5 C 387.6 159.9 391.5 157.6 395.2 157 C 399.7 156.3 404.1 159.4 405.3 163.7 C 406.3 167.2 405.5 171.5 404.5 175.2 C 403.9 178.1 401.7 180.5 400.3 183 Z M 386.8 168.4 C 386.6 172.7 390.6 177 394.7 177.2 C 398.9 177.4 403.2 173.3 403.3 169.1 C 403.4 164.8 399.6 160.5 395.4 160.3 C 391.2 160.1 386.9 164.1 386.8 168.4 Z"/>
    <path id="XMLID_421_" class="st0" d="M 376.1 219.2 C 379.3 224.3 382.3 228.9 385.9 234.6 C 378.6 239 372.1 243.2 365.3 247.1 C 358.5 251 351.5 254.5 344 257.8 C 354.6 245.2 357.8 226.8 376.1 219.2 Z"/>
    <path id="XMLID_420_" class="st0" d="M 409.2 209.7 C 400.7 214.8 392.2 220 383.7 225.1 C 383.1 224.8 382.5 224.5 381.9 224.2 C 382.4 222.5 382.3 220 383.4 219.3 C 390.2 214.9 397.2 210.8 404.3 206.9 C 405.5 206.2 407.7 207.2 409.4 207.5 C 409.3 208.1 409.3 208.9 409.2 209.7 Z"/>
    <path id="XMLID_417_" class="st0" d="M 414.2 212.9 C 404.9 218.4 395.5 224 386.2 229.5 C 385.8 228.9 385.4 228.2 385 227.6 C 394.3 222 403.6 216.4 412.9 210.8 C 413.4 211.4 413.8 212.1 414.2 212.9 Z"/>
    <path id="XMLID_21_" class="st0" d="M 294.7 260.8 C 294.2 262.6 293.2 264.4 293.1 266.2 C 292.8 271.2 296.8 275.2 301.5 275.1 C 305.8 275 309.8 270.9 309.7 266.6 C 309.7 262 305.3 257.9 300.6 258.4 C 298.8 258.6 297 259.6 295.3 260.2 C 296.1 259 296.7 257.2 297.8 256.7 C 302.4 254.7 307.6 256.7 310.3 261.1 C 312.9 265.4 312.2 270.9 308.6 274.4 C 304.9 277.9 299.4 278.3 295.3 275.5 C 291 272.5 289.4 267.3 291.6 262.8 C 292.1 261.7 293.7 261.4 294.7 260.8 Z"/>
    <path id="XMLID_14_" class="st0" d="M 386.8 168.4 C 387 164.1 391.2 160.1 395.4 160.3 C 399.6 160.5 403.5 164.8 403.3 169.1 C 403.2 173.3 398.9 177.3 394.7 177.2 C 390.5 177.1 386.6 172.7 386.8 168.4 Z M 401.6 167.3 C 399.9 166 397.9 163.6 395.5 163.1 C 391.6 162.2 389.3 165.2 389.2 168.8 C 389 172.1 391.1 174.4 394.7 174.6 C 398.6 174.7 400.4 172.3 401.6 167.3 Z"/>
    <path id="XMLID_12_" class="st0" d="M 401.6 167.3 C 400.4 172.2 398.6 174.7 394.6 174.5 C 391 174.4 389 172 389.1 168.7 C 389.3 165.1 391.5 162.2 395.4 163 C 397.9 163.7 399.8 166.1 401.6 167.3 Z"/>
    <path id="XMLID_9_" class="st0" d="M 513.1 296.7 C 511.2 293.2 508.1 290.8 504.2 289.6 C 503.4 289.3 502.6 289.1 501.5 288.7 C 501.5 288.2 501.5 283.1 501.5 282.6 L 494.7 282.6 C 494.7 284.9 494 291.9 494.1 294.2 C 494.1 296 493.7 298.2 496.1 298.9 C 498.4 299.6 500.5 299.3 501.9 297 C 505.9 298.1 508.1 301.4 507.7 305.6 C 507.3 309.5 504.3 312.5 500.4 312.9 C 500.6 315.4 500.8 318.2 500.1 320.5 C 505.2 320.5 509.4 318.1 512.6 313.6 C 516.2 308.3 516.2 302.4 513.1 296.7 Z M 512.5 307.7 C 512.2 304.9 511.9 301.9 511.5 298.9 C 513.1 301.7 513.3 304.8 512.5 307.7 Z"/>
    <path id="XMLID_2_" class="st0" d="M 511.5 298.8 C 511.8 301.8 512.2 304.8 512.5 307.6 C 513.3 304.8 513.1 301.7 511.5 298.8 Z"/>
  </g>
</svg>