<?xml version="1.0" encoding="iso-8859-1"?>
<!-- Generator: Adobe Illustrator 19.0.0, SVG Export Plug-In . SVG Version: 6.00 Build 0)  -->
<svg version="1.1" id="Capa_1" xmlns="http://www.w3.org/2000/svg" xmlns:xlink="http://www.w3.org/1999/xlink" x="0px" y="0px"
	 viewBox="0 0 393.837 393.837" style="enable-background:new 0 0 393.837 393.837;" xml:space="preserve">
<g>
	<g>
		<path d="M356.116,219.884c-0.058-0.134-0.119-0.266-0.183-0.397C311.991,129.369,242.986,65.128,150.854,28.553
			C104.82,10.164,60.258,0.557,18.404,0c-2.666-0.018-5.245,0.999-7.148,2.872C9.353,4.746,8.278,7.303,8.271,9.974L8.074,87.003
			c-0.014,5.415,4.284,9.856,9.696,10.021c9.837,0.299,19.293,0.912,28.163,1.826c31.831,3.09,62.772,11.959,91.961,26.36
			c58.988,29.117,103.491,73.846,132.273,132.944c0.037,0.076,0.079,0.16,0.118,0.234c0.282,0.543,28.193,55.172,28.193,125.437
			c0,5.523,4.477,10,10,10h73.781c5.523,0,10-4.477,10-10v-9.838C392.259,303.852,357.591,223.279,356.116,219.884z
			 M318.308,373.825c-2.353-69.336-28.331-120.891-30.214-124.542c-30.771-63.122-78.327-110.901-141.348-142.009
			C115.379,91.8,82.111,82.268,47.926,78.949c-6.335-0.653-12.973-1.161-19.827-1.517l0.146-57.114
			c36.466,1.817,75.163,10.818,115.21,26.816c43.828,17.398,82.442,41.521,114.77,71.699
			c32.074,29.939,58.863,66.679,79.628,109.206c1.854,4.34,34.354,81.449,34.407,145.786H318.308z"/>
		<path d="M169.086,179.746c-43.617-33.943-100.236-54.635-155.346-56.77c-2.703-0.099-5.359,0.901-7.32,2.786
			c-1.96,1.885-3.067,4.487-3.067,7.206v73.877c0,4.859,3.494,9.016,8.281,9.851l33.141,5.784
			c30.368,6.005,57.19,19.96,79.731,41.486c21.514,20.495,36.806,46.868,44.213,76.231c3.034,12.226,4.951,24.723,6.835,44.573
			c0.487,5.133,4.798,9.055,9.955,9.055h73.782c5.523,0,10-4.477,10-10c0-66.173-27.202-118.101-50.021-150.01
			C194.931,199.781,170.728,181.002,169.086,179.746z M194.547,373.825c-1.725-15.919-3.628-27.205-6.427-38.482
			c-8.341-33.066-25.568-62.756-49.811-85.85c-25.358-24.217-55.563-39.914-89.774-46.657c-0.071-0.014-0.142-0.027-0.214-0.04
			l-24.969-4.357v-54.842c47.7,3.994,95.828,22.641,133.485,51.958c0.024,0.019,0.059,0.045,0.083,0.064
			c0.233,0.178,23.541,18.146,46.474,50.379c19.772,27.792,43.13,71.964,45.669,127.825h-54.516V373.825z"/>
		<path d="M64.776,268.858l-0.471,0.002c-16.601,0.171-32.3,6.78-44.205,18.608c-11.999,11.921-18.576,27.604-18.521,44.16
			c0.059,16.466,6.655,32.048,18.575,43.876c11.881,11.789,27.486,18.293,43.95,18.322c0.38,0.007,0.759,0.011,1.139,0.011
			c15.974,0,31.818-6.705,43.47-18.395c11.809-11.848,18.282-27.572,18.227-44.307C126.694,292.668,94.481,268.858,64.776,268.858z
			 M94.547,361.323c-8.128,8.155-19.157,12.747-30.121,12.505c-0.072-0.001-0.143-0.002-0.215-0.002
			c-23.028,0-42.551-19.357-42.632-42.267c-0.076-22.904,19.585-42.459,42.905-42.7l0.291-0.001
			c20.147,0,41.996,16.212,42.163,42.374C106.977,342.581,102.576,353.267,94.547,361.323z"/>
	</g>
	<g>
		<path style="fill:#FFFFFF;" d="M356.116,219.884c-0.058-0.134-0.119-0.266-0.183-0.397
			C311.991,129.369,242.986,65.128,150.854,28.553C104.82,10.164,60.258,0.557,18.404,0c-2.666-0.018-5.245,0.999-7.148,2.872
			C9.353,4.746,8.278,7.303,8.271,9.974L8.074,87.003c-0.014,5.415,4.284,9.856,9.696,10.021c9.837,0.299,19.293,0.912,28.163,1.826
			c31.831,3.09,62.772,11.959,91.961,26.36c58.988,29.117,103.491,73.846,132.273,132.944c0.037,0.076,0.079,0.16,0.118,0.234
			c0.282,0.543,28.193,55.172,28.193,125.437c0,5.523,4.477,10,10,10h73.781c5.523,0,10-4.477,10-10v-9.838
			C392.259,303.852,357.591,223.279,356.116,219.884z M318.308,373.825c-2.353-69.336-28.331-120.891-30.214-124.542
			c-30.771-63.122-78.327-110.901-141.348-142.009C115.379,91.8,82.111,82.268,47.926,78.949
			c-6.335-0.653-12.973-1.161-19.827-1.517l0.146-57.114c36.466,1.817,75.163,10.818,115.21,26.816
			c43.828,17.398,82.442,41.521,114.77,71.699c32.074,29.939,58.863,66.679,79.628,109.206c1.854,4.34,34.354,81.449,34.407,145.786
			H318.308z"/>
		<path style="fill:#FFFFFF;" d="M169.086,179.746c-43.617-33.943-100.236-54.635-155.346-56.77
			c-2.703-0.099-5.359,0.901-7.32,2.786c-1.96,1.885-3.067,4.487-3.067,7.206v73.877c0,4.859,3.494,9.016,8.281,9.851l33.141,5.784
			c30.368,6.005,57.19,19.96,79.731,41.486c21.514,20.495,36.806,46.868,44.213,76.231c3.034,12.226,4.951,24.723,6.835,44.573
			c0.487,5.133,4.798,9.055,9.955,9.055h73.782c5.523,0,10-4.477,10-10c0-66.173-27.202-118.101-50.021-150.01
			C194.931,199.781,170.728,181.002,169.086,179.746z M194.547,373.825c-1.725-15.919-3.628-27.205-6.427-38.482
			c-8.341-33.066-25.568-62.756-49.811-85.85c-25.358-24.217-55.563-39.914-89.774-46.657c-0.071-0.014-0.142-0.027-0.214-0.04
			l-24.969-4.357v-54.842c47.7,3.994,95.828,22.641,133.485,51.958c0.024,0.019,0.059,0.045,0.083,0.064
			c0.233,0.178,23.541,18.146,46.474,50.379c19.772,27.792,43.13,71.964,45.669,127.825h-54.516V373.825z"/>
		<path style="fill:#FFFFFF;" d="M64.776,268.858l-0.471,0.002c-16.601,0.171-32.3,6.78-44.205,18.608
			c-11.999,11.921-18.576,27.604-18.521,44.16c0.059,16.466,6.655,32.048,18.575,43.876c11.881,11.789,27.486,18.293,43.95,18.322
			c0.38,0.007,0.759,0.011,1.139,0.011c15.974,0,31.818-6.705,43.47-18.395c11.809-11.848,18.282-27.572,18.227-44.307
			C126.694,292.668,94.481,268.858,64.776,268.858z M94.547,361.323c-8.128,8.155-19.157,12.747-30.121,12.505
			c-0.072-0.001-0.143-0.002-0.215-0.002c-23.028,0-42.551-19.357-42.632-42.267c-0.076-22.904,19.585-42.459,42.905-42.7
			l0.291-0.001c20.147,0,41.996,16.212,42.163,42.374C106.977,342.581,102.576,353.267,94.547,361.323z"/>
	</g>
</g>
<g>
</g>
<g>
</g>
<g>
</g>
<g>
</g>
<g>
</g>
<g>
</g>
<g>
</g>
<g>
</g>
<g>
</g>
<g>
</g>
<g>
</g>
<g>
</g>
<g>
</g>
<g>
</g>
<g>
</g>
</svg>
